<svg version="1.1" xmlns="http://www.w3.org/2000/svg" viewBox="-37.962267107498306 -36.397922457096 75.92453421499661 72.795844914192" fill="none" stroke="black" stroke-width="0.6%" vector-effect="non-scaling-stroke">
    <path d="M 28.15294 -14.2828 A 31.56875757337522 31.56875757337522 0 0 0 28.12797 -14.33192 A 5 5 0 0 0 29.9031 -21.72587 A 5 5 0 0 0 22.716 -22.67639 A 5.000000000000002 5.000000000000002 0 0 1 15.88607 -21.78524 A 5.000000000000002 5.000000000000002 0 0 1 14.38099 -28.10291 A 31.56875757337522 31.56875757337522 0 0 0 14.33192 -28.12797 A 5 5 0 0 0 11.42197 -35.1532 A 5.0000000000000036 5.0000000000000036 0 0 0 5.04878 -31.69771 A 4.999999999999998 4.999999999999998 0 0 1 0.04706 -26.96223 A 4.999999999999998 4.999999999999998 0 0 1 -4.88401 -31.18867 A 31.56875757337522 31.56875757337522 0 0 0 -4.93844 -31.18009 A 5 5 0 0 0 -11.42197 -35.1532 A 5 5 0 0 0 -14.54689 -28.61159 A 5 5 0 0 1 -15.80993 -21.84056 A 5 5 0 0 1 -22.28349 -22.36141 A 31.56875757337522 31.56875757337522 0 0 0 -22.32248 -22.32248 A 5.000000000000003 5.000000000000003 0 0 0 -29.9031 -21.72587 A 5.000000000000003 5.000000000000003 0 0 0 -28.58615 -14.59681 A 5 5 0 0 1 -25.62806 -8.37654 A 5 5 0 0 1 -31.17143 -4.99285 A 31.56875757337522 31.56875757337522 0 0 0 -31.18009 -4.93844 A 5 5 0 0 0 -36.96227 0 A 5 5 0 0 0 -31.70647 4.99345 A 4.999999999999999 4.999999999999999 0 0 1 -25.65714 8.28703 A 4.999999999999999 4.999999999999999 0 0 1 -28.15294 14.2828 A 31.56875757337522 31.56875757337522 0 0 0 -28.12797 14.33192 A 5 5 0 0 0 -29.9031 21.72587 A 5 5 0 0 0 -22.716 22.67639 A 5 5 0 0 1 -15.88607 21.78524 A 4.999999999999999 4.999999999999999 0 0 1 -14.38099 28.10291 A 31.56875757337522 31.56875757337522 0 0 0 -14.33192 28.12797 A 5 5 0 0 0 -11.42197 35.1532 A 5.0000000000000036 5.0000000000000036 0 0 0 -5.04878 31.69771 A 4.999999999999998 4.999999999999998 0 0 1 -0.04706 26.96223 A 4.999999999999998 4.999999999999998 0 0 1 4.88401 31.18867 A 31.56875757337522 31.56875757337522 0 0 0 4.93844 31.18009 A 5 5 0 0 0 11.42197 35.1532 A 5 5 0 0 0 14.54689 28.61159 A 5 5 0 0 1 15.80993 21.84056 A 5 5 0 0 1 22.28349 22.36141 A 31.56875757337522 31.56875757337522 0 0 0 22.32248 22.32248 A 5 5 0 0 0 29.9031 21.72587 A 5 5 0 0 0 28.58615 14.59681 A 5.000000000000001 5.000000000000001 0 0 1 25.62806 8.37654 A 4.999999999999997 4.999999999999997 0 0 1 31.17143 4.99285 A 31.56875757337522 31.56875757337522 0 0 0 31.18009 4.93844 A 5 5 0 0 0 36.96227 0 A 5 5 0 0 0 31.70647 -4.99345 A 4.999999999999998 4.999999999999998 0 0 1 25.65714 -8.28703 A 4.999999999999998 4.999999999999998 0 0 1 28.15294 -14.2828 Z" />
</svg>