<svg version="1.1" xmlns="http://www.w3.org/2000/svg" viewBox="-8.392454221499662 -8.0795852914192 16.784908442999324 16.1591705828384" fill="none" stroke="black" stroke-width="0.6%" vector-effect="non-scaling-stroke">
    <path d="M 5.63059 -2.85656 A 6.313751514675044 6.313751514675044 0 0 0 5.62559 -2.86638 A 1 1 0 0 0 5.98062 -4.34517 A 1 1 0 0 0 4.5432 -4.53528 A 1.0000000000000002 1.0000000000000002 0 0 1 3.17721 -4.35705 A 1.0000000000000002 1.0000000000000002 0 0 1 2.8762 -5.62058 A 6.313751514675044 6.313751514675044 0 0 0 2.86638 -5.62559 A 1 1 0 0 0 2.28439 -7.03064 A 0.9999999999999999 0.9999999999999999 0 0 0 1.00976 -6.33954 A 1.0000000000000004 1.0000000000000004 0 0 1 0.00941 -5.39245 A 1.0000000000000004 1.0000000000000004 0 0 1 -0.9768 -6.23773 A 6.313751514675044 6.313751514675044 0 0 0 -0.98769 -6.23602 A 1 1 0 0 0 -2.28439 -7.03064 A 1 1 0 0 0 -2.90938 -5.72232 A 1.0000000000000002 1.0000000000000002 0 0 1 -3.16199 -4.36811 A 0.9999999999999999 0.9999999999999999 0 0 1 -4.4567 -4.47228 A 6.313751514675044 6.313751514675044 0 0 0 -4.4645 -4.4645 A 0.9999999999999999 0.9999999999999999 0 0 0 -5.98062 -4.34517 A 0.9999999999999999 0.9999999999999999 0 0 0 -5.71723 -2.91936 A 0.9999999999999997 0.9999999999999997 0 0 1 -5.12561 -1.67531 A 0.9999999999999997 0.9999999999999997 0 0 1 -6.23429 -0.99857 A 6.313751514675044 6.313751514675044 0 0 0 -6.23602 -0.98769 A 1 1 0 0 0 -7.39245 0 A 1 1 0 0 0 -6.34129 0.99869 A 1.0000000000000002 1.0000000000000002 0 0 1 -5.13143 1.65741 A 1.0000000000000002 1.0000000000000002 0 0 1 -5.63059 2.85656 A 6.313751514675044 6.313751514675044 0 0 0 -5.62559 2.86638 A 1 1 0 0 0 -5.98062 4.34517 A 1 1 0 0 0 -4.5432 4.53528 A 0.9999999999999998 0.9999999999999998 0 0 1 -3.17721 4.35705 A 0.9999999999999998 0.9999999999999998 0 0 1 -2.8762 5.62058 A 6.313751514675044 6.313751514675044 0 0 0 -2.86638 5.62559 A 1 1 0 0 0 -2.28439 7.03064 A 1 1 0 0 0 -1.00976 6.33954 A 1.0000000000000004 1.0000000000000004 0 0 1 -0.00941 5.39245 A 1.0000000000000004 1.0000000000000004 0 0 1 0.9768 6.23773 A 6.313751514675044 6.313751514675044 0 0 0 0.98769 6.23602 A 1 1 0 0 0 2.28439 7.03064 A 1 1 0 0 0 2.90938 5.72232 A 0.9999999999999999 0.9999999999999999 0 0 1 3.16199 4.36811 A 1.0000000000000002 1.0000000000000002 0 0 1 4.4567 4.47228 A 6.313751514675044 6.313751514675044 0 0 0 4.4645 4.4645 A 0.9999999999999999 0.9999999999999999 0 0 0 5.98062 4.34517 A 0.9999999999999999 0.9999999999999999 0 0 0 5.71723 2.91936 A 0.9999999999999998 0.9999999999999998 0 0 1 5.12561 1.67531 A 0.9999999999999997 0.9999999999999997 0 0 1 6.23429 0.99857 A 6.313751514675044 6.313751514675044 0 0 0 6.23602 0.98769 A 1 1 0 0 0 7.39245 0 A 1 1 0 0 0 6.34129 -0.99869 A 1 1 0 0 1 5.13143 -1.65741 A 1 1 0 0 1 5.63059 -2.85656 Z" />
</svg>